# Blender 4.3.2
# www.blender.org
mtllib sphere2.mtl
o Icosphere
v 0.000000 -1.000000 0.000000
v 0.723607 -0.447220 0.525725
v -0.276388 -0.447220 0.850649
v -0.894426 -0.447216 0.000000
v 0.276388 0.447220 0.850649
v -0.723607 0.447220 0.525725
v 0.894426 0.447216 0.000000
v 0.000000 1.000000 0.000000
v -0.232822 -0.657519 0.716563
v -0.162456 -0.850654 0.499995
v -0.077607 -0.967950 0.238853
v 0.203181 -0.967950 0.147618
v 0.425323 -0.850654 0.309011
v 0.609547 -0.657519 0.442856
v 0.531941 -0.502302 0.681712
v 0.262869 -0.525738 0.809012
v -0.029639 -0.502302 0.864184
v 0.850648 -0.525736 0.000000
v 0.812729 -0.502301 0.295238
v -0.753442 -0.657515 0.000000
v -0.525730 -0.850652 0.000000
v -0.251147 -0.967949 0.000000
v -0.483971 -0.502302 0.716565
v -0.688189 -0.525736 0.499997
v -0.831051 -0.502299 0.238853
v 0.956626 0.251149 0.147618
v 0.951058 -0.000000 0.309013
v 0.860698 -0.251151 0.442858
v 0.155215 0.251152 0.955422
v 0.000000 -0.000000 1.000000
v -0.155215 -0.251152 0.955422
v 0.687159 -0.251152 0.681715
v 0.587786 0.000000 0.809017
v 0.436007 0.251152 0.864188
v -0.860698 0.251151 0.442858
v -0.951058 -0.000000 0.309013
v -0.956626 -0.251149 0.147618
v -0.436007 -0.251152 0.864188
v -0.587786 0.000000 0.809017
v -0.687159 0.251152 0.681715
v 0.831051 0.502299 0.238853
v 0.688189 0.525736 0.499997
v 0.483971 0.502302 0.716565
v 0.029639 0.502302 0.864184
v -0.262869 0.525738 0.809012
v -0.531941 0.502302 0.681712
v -0.812729 0.502301 0.295238
v -0.850648 0.525736 0.000000
v 0.077607 0.967950 0.238853
v 0.162456 0.850654 0.499995
v 0.232822 0.657519 0.716563
v 0.753442 0.657515 0.000000
v 0.525730 0.850652 0.000000
v 0.251147 0.967949 0.000000
v -0.203181 0.967950 0.147618
v -0.425323 0.850654 0.309011
v -0.609547 0.657519 0.442856
v -0.447210 0.894429 0.000000
v -0.670817 0.723611 0.162457
v -0.138197 0.894430 0.425319
v -0.361804 0.723612 0.587778
v -0.052790 0.723612 0.688185
v 0.361800 0.894429 0.262863
v 0.447209 0.723612 0.525728
v 0.638194 0.723610 0.262864
v -1.000000 0.000001 0.000000
v -0.947213 0.276397 0.162458
v -0.447216 0.276397 0.850648
v -0.309017 -0.000001 0.951056
v -0.138199 0.276397 0.951055
v 0.670820 0.276396 0.688190
v 0.809019 -0.000002 0.587783
v 0.861804 0.276394 0.425323
v -0.809018 0.000000 0.587783
v -0.861803 -0.276396 0.425324
v -0.670819 -0.276397 0.688191
v 0.309017 0.000000 0.951056
v 0.138199 -0.276398 0.951055
v 0.447216 -0.276398 0.850648
v 1.000000 0.000000 0.000000
v 0.947213 -0.276396 0.162458
v -0.638195 -0.723609 0.262864
v -0.361801 -0.894428 0.262864
v -0.447211 -0.723610 0.525729
v 0.670818 -0.723610 0.162458
v 0.447211 -0.894428 0.000001
v 0.052790 -0.723612 0.688185
v 0.138199 -0.894429 0.425321
v 0.361805 -0.723611 0.587779
vn 0.0482 -0.9878 0.1482
vn 0.7230 -0.5545 0.4121
vn -0.1261 -0.9878 0.0916
vn 0.8193 -0.3987 0.4121
vn -0.1387 -0.3987 0.9065
vn -0.9050 -0.3987 0.1482
vn 0.7711 -0.3024 0.5603
vn -0.2945 -0.3024 0.9065
vn 0.3427 0.5545 0.7583
vn -0.6153 0.5545 0.5603
vn -0.3702 0.9158 0.1560
vn -0.5257 0.8363 0.1557
vn -0.5749 0.7594 0.3046
vn -0.7895 0.5955 0.1487
vn -0.7081 0.6369 0.3049
vn -0.7230 0.5545 0.4121
vn -0.0482 0.9878 0.1482
vn -0.2627 0.9158 0.3039
vn -0.4674 0.7594 0.4526
vn -0.0891 0.9575 0.2743
vn 0.0339 0.9158 0.4003
vn -0.3105 0.8363 0.4519
vn -0.1876 0.7947 0.5773
vn -0.0144 0.8363 0.5481
vn 0.1121 0.7594 0.6409
vn -0.5087 0.6369 0.5792
vn -0.3854 0.5955 0.7049
vn -0.2287 0.6726 0.7038
vn -0.1026 0.5955 0.7968
vn 0.0711 0.6369 0.7676
vn 0.1685 0.5545 0.8149
vn 0.1261 0.9878 0.0916
vn 0.2079 0.9158 0.3438
vn 0.2860 0.7594 0.5843
vn 0.2334 0.9575 0.1696
vn 0.3912 0.9158 0.0915
vn 0.3338 0.8363 0.4350
vn 0.4911 0.7947 0.3568
vn 0.5168 0.8363 0.1830
vn 0.6441 0.7594 0.0915
vn 0.3936 0.6369 0.6628
vn 0.5513 0.5955 0.5843
vn 0.5987 0.6726 0.4350
vn 0.7261 0.5955 0.3438
vn 0.7520 0.6369 0.1696
vn 0.8271 0.5545 0.0916
vn -0.8857 0.4399 0.1487
vn -0.9846 -0.0784 0.1560
vn -0.9831 0.0962 0.1557
vn -0.9363 0.1745 0.3046
vn -0.8864 0.3485 0.3049
vn -0.8193 0.3987 0.4121
vn -0.6451 0.3987 0.6519
vn -0.5791 0.1745 0.7964
vn -0.4526 -0.0784 0.8883
vn -0.5638 0.3485 0.7488
vn -0.4151 0.4399 0.7964
vn -0.4519 0.0962 0.8869
vn -0.3035 0.1876 0.9342
vn -0.2882 0.3611 0.8869
vn -0.1323 0.4399 0.8883
vn -0.3045 -0.1702 0.9372
vn -0.1560 -0.0784 0.9846
vn -0.1557 0.0962 0.9831
vn 0.0004 0.1745 0.9846
vn 0.0160 0.3485 0.9372
vn 0.1387 0.3987 0.9065
vn 0.4206 0.3987 0.8149
vn 0.5785 0.1745 0.7968
vn 0.7049 -0.0784 0.7049
vn 0.5379 0.3485 0.7676
vn 0.6291 0.4399 0.6409
vn 0.7038 0.0962 0.7038
vn 0.7947 0.1876 0.5773
vn 0.7544 0.3611 0.5481
vn 0.8039 0.4399 0.4003
vn 0.7972 -0.1702 0.5792
vn 0.8883 -0.0784 0.4526
vn 0.8869 0.0962 0.4519
vn 0.9366 0.1745 0.3039
vn 0.8963 0.3485 0.2744
vn 0.9050 0.3987 0.1482
vn -0.7711 0.3024 0.5603
vn -0.8883 0.0784 0.4526
vn -0.9366 -0.1745 0.3039
vn -0.7972 0.1702 0.5792
vn -0.7049 0.0784 0.7049
vn -0.8869 -0.0962 0.4519
vn -0.7947 -0.1876 0.5774
vn -0.7038 -0.0962 0.7038
vn -0.5785 -0.1745 0.7968
vn -0.8963 -0.3485 0.2744
vn -0.8039 -0.4399 0.4003
vn -0.7544 -0.3611 0.5481
vn -0.6291 -0.4399 0.6409
vn -0.5379 -0.3485 0.7676
vn -0.4206 -0.3987 0.8149
vn 0.2945 0.3024 0.9065
vn 0.1560 0.0784 0.9846
vn -0.0004 -0.1745 0.9846
vn 0.3045 0.1702 0.9372
vn 0.4526 0.0784 0.8883
vn 0.1557 -0.0962 0.9831
vn 0.3035 -0.1876 0.9342
vn 0.4519 -0.0962 0.8869
vn 0.5791 -0.1745 0.7964
vn -0.0160 -0.3485 0.9372
vn 0.1323 -0.4399 0.8883
vn 0.2882 -0.3611 0.8869
vn 0.4151 -0.4399 0.7964
vn 0.5638 -0.3485 0.7488
vn 0.6451 -0.3987 0.6519
vn 0.9846 0.0784 0.1560
vn 0.9363 -0.1745 0.3046
vn 0.9831 -0.0962 0.1557
vn 0.8864 -0.3485 0.3049
vn 0.8857 -0.4399 0.1487
vn -0.8271 -0.5545 0.0916
vn -0.6441 -0.7594 0.0915
vn -0.3912 -0.9158 0.0915
vn -0.7520 -0.6369 0.1696
vn -0.7261 -0.5955 0.3438
vn -0.5168 -0.8363 0.1830
vn -0.4911 -0.7947 0.3568
vn -0.5987 -0.6726 0.4350
vn -0.5513 -0.5955 0.5843
vn -0.2334 -0.9575 0.1696
vn -0.2079 -0.9158 0.3438
vn -0.3338 -0.8363 0.4350
vn -0.2860 -0.7594 0.5843
vn -0.3936 -0.6369 0.6628
vn -0.3427 -0.5545 0.7583
vn 0.7895 -0.5955 0.1487
vn 0.7081 -0.6369 0.3049
vn 0.5749 -0.7594 0.3046
vn 0.5257 -0.8363 0.1557
vn 0.3702 -0.9158 0.1560
vn -0.1685 -0.5545 0.8149
vn -0.1121 -0.7594 0.6409
vn -0.0339 -0.9158 0.4003
vn -0.0711 -0.6369 0.7676
vn 0.1026 -0.5955 0.7968
vn 0.0144 -0.8363 0.5481
vn 0.1876 -0.7947 0.5773
vn 0.2287 -0.6726 0.7038
vn 0.3854 -0.5955 0.7049
vn 0.0891 -0.9575 0.2743
vn 0.2627 -0.9158 0.3039
vn 0.3105 -0.8363 0.4519
vn 0.4674 -0.7594 0.4526
vn 0.5087 -0.6369 0.5792
vn 0.6153 -0.5545 0.5603
vt 0.181819 0.000000
vt 0.204546 0.039365
vt 0.159092 0.039365
vt 0.272728 0.157461
vt 0.295455 0.118096
vt 0.318182 0.157461
vt 0.909091 0.000000
vt 0.931818 0.039365
vt 0.886364 0.039365
vt 0.295455 0.196826
vt 0.090910 0.157461
vt 0.136364 0.157461
vt 0.113637 0.196826
vt 0.818182 0.157461
vt 0.863636 0.157461
vt 0.840909 0.196826
vt 0.250001 0.196826
vt 0.068182 0.196826
vt 0.181819 0.314921
vt 0.227273 0.314921
vt 0.204546 0.354286
vt 0.000000 0.314921
vt 0.045455 0.314921
vt 0.022727 0.354286
vt 0.818182 0.393651
vt 0.863636 0.393651
vt 0.840909 0.433017
vt 0.840909 0.354286
vt 0.886364 0.354286
vt 0.818182 0.314921
vt 0.863636 0.314921
vt 0.909091 0.314921
vt 0.068182 0.433017
vt 0.113637 0.433017
vt 0.090910 0.472382
vt 0.045455 0.393651
vt 0.090910 0.393651
vt 0.068182 0.354286
vt 0.136365 0.393651
vt 0.113637 0.354286
vt 0.159092 0.354286
vt 0.090909 0.314921
vt 0.136364 0.314921
vt 0.250001 0.433017
vt 0.295455 0.433017
vt 0.272728 0.472382
vt 0.227273 0.393651
vt 0.272728 0.393651
vt 0.250001 0.354286
vt 0.318182 0.393651
vt 0.295455 0.354286
vt 0.340910 0.354286
vt 0.272728 0.314921
vt 0.318182 0.314921
vt 0.363637 0.314921
vt 0.840909 0.275556
vt 0.863636 0.236191
vt 0.818182 0.236191
vt 0.886364 0.275556
vt 0.022727 0.275556
vt 0.045455 0.236191
vt 0.068182 0.275556
vt 0.090910 0.236191
vt 0.113637 0.275556
vt 0.136364 0.236191
vt 0.159092 0.275556
vt 0.204546 0.275556
vt 0.227273 0.236191
vt 0.250001 0.275556
vt 0.272728 0.236191
vt 0.295455 0.275556
vt 0.318182 0.236191
vt 0.340910 0.275556
vt 0.931818 0.275556
vt 0.909091 0.236191
vt 0.886364 0.196826
vt 0.954545 0.236191
vt 0.931818 0.196826
vt 0.977273 0.196826
vt 0.909091 0.157461
vt 0.954545 0.157461
vt 1.000000 0.157461
vt 0.181819 0.236191
vt 0.159092 0.196826
vt 0.204546 0.196826
vt 0.181819 0.157461
vt 0.227274 0.157461
vt 0.363637 0.236191
vt 0.340910 0.196826
vt 0.363637 0.157461
vt 0.840909 0.118096
vt 0.863636 0.078731
vt 0.886364 0.118096
vt 0.909091 0.078731
vt 0.931818 0.118096
vt 0.954545 0.078731
vt 0.977273 0.118096
vt 0.340910 0.118096
vt 0.318182 0.078731
vt 0.363637 0.078730
vt 0.340910 0.039365
vt 0.113637 0.118096
vt 0.136365 0.078731
vt 0.159092 0.118096
vt 0.181819 0.078731
vt 0.204546 0.118096
vt 0.227273 0.078731
vt 0.250001 0.118096
s 0
f 1/1/1 12/2/1 11/3/1
f 2/4/2 14/5/2 19/6/2
f 1/7/3 11/8/3 22/9/3
f 2/4/4 19/6/4 28/10/4
f 3/11/5 17/12/5 31/13/5
f 4/14/6 25/15/6 37/16/6
f 2/4/7 28/10/7 32/17/7
f 3/11/8 31/13/8 38/18/8
f 5/19/9 43/20/9 51/21/9
f 6/22/10 46/23/10 57/24/10
f 58/25/11 56/26/11 55/27/11
f 58/25/12 59/28/12 56/26/12
f 59/28/13 57/29/13 56/26/13
f 48/30/14 47/31/14 59/28/14
f 59/28/15 47/31/15 57/29/15
f 47/31/16 6/32/16 57/29/16
f 55/33/17 49/34/17 8/35/17
f 56/36/18 60/37/18 55/33/18
f 57/24/19 61/38/19 56/36/19
f 55/33/20 60/37/20 49/34/20
f 60/37/21 50/39/21 49/34/21
f 56/36/22 61/38/22 60/37/22
f 61/38/23 62/40/23 60/37/23
f 60/37/24 62/40/24 50/39/24
f 62/40/25 51/41/25 50/39/25
f 57/24/26 46/23/26 61/38/26
f 46/23/27 45/42/27 61/38/27
f 61/38/28 45/42/28 62/40/28
f 45/42/29 44/43/29 62/40/29
f 62/40/30 44/43/30 51/41/30
f 44/43/31 5/19/31 51/41/31
f 49/44/32 54/45/32 8/46/32
f 50/47/33 63/48/33 49/44/33
f 51/21/34 64/49/34 50/47/34
f 49/44/35 63/48/35 54/45/35
f 63/48/36 53/50/36 54/45/36
f 50/47/37 64/49/37 63/48/37
f 64/49/38 65/51/38 63/48/38
f 63/48/39 65/51/39 53/50/39
f 65/51/40 52/52/40 53/50/40
f 51/21/41 43/20/41 64/49/41
f 43/20/42 42/53/42 64/49/42
f 64/49/43 42/53/43 65/51/43
f 42/53/44 41/54/44 65/51/44
f 65/51/45 41/54/45 52/52/45
f 41/54/46 7/55/46 52/52/46
f 67/56/47 47/31/47 48/30/47
f 37/16/48 36/57/48 66/58/48
f 66/58/49 36/57/49 67/56/49
f 36/57/50 35/59/50 67/56/50
f 67/56/51 35/59/51 47/31/51
f 35/59/52 6/32/52 47/31/52
f 40/60/53 46/23/53 6/22/53
f 39/61/54 68/62/54 40/60/54
f 38/18/55 69/63/55 39/61/55
f 40/60/56 68/62/56 46/23/56
f 68/62/57 45/42/57 46/23/57
f 39/61/58 69/63/58 68/62/58
f 69/63/59 70/64/59 68/62/59
f 68/62/60 70/64/60 45/42/60
f 70/64/61 44/43/61 45/42/61
f 38/18/62 31/13/62 69/63/62
f 31/13/63 30/65/63 69/63/63
f 69/63/64 30/65/64 70/64/64
f 30/65/65 29/66/65 70/64/65
f 70/64/66 29/66/66 44/43/66
f 29/66/67 5/19/67 44/43/67
f 34/67/68 43/20/68 5/19/68
f 33/68/69 71/69/69 34/67/69
f 32/17/70 72/70/70 33/68/70
f 34/67/71 71/69/71 43/20/71
f 71/69/72 42/53/72 43/20/72
f 33/68/73 72/70/73 71/69/73
f 72/70/74 73/71/74 71/69/74
f 71/69/75 73/71/75 42/53/75
f 73/71/76 41/54/76 42/53/76
f 32/17/77 28/10/77 72/70/77
f 28/10/78 27/72/78 72/70/78
f 72/70/79 27/72/79 73/71/79
f 27/72/80 26/73/80 73/71/80
f 73/71/81 26/73/81 41/54/81
f 26/73/82 7/55/82 41/54/82
f 35/59/83 40/74/83 6/32/83
f 36/57/84 74/75/84 35/59/84
f 37/16/85 75/76/85 36/57/85
f 35/59/86 74/75/86 40/74/86
f 74/75/87 39/77/87 40/74/87
f 36/57/88 75/76/88 74/75/88
f 75/76/89 76/78/89 74/75/89
f 74/75/90 76/78/90 39/77/90
f 76/78/91 38/79/91 39/77/91
f 37/16/92 25/15/92 75/76/92
f 25/15/93 24/80/93 75/76/93
f 75/76/94 24/80/94 76/78/94
f 24/80/95 23/81/95 76/78/95
f 76/78/96 23/81/96 38/79/96
f 23/81/97 3/82/97 38/79/97
f 29/66/98 34/67/98 5/19/98
f 30/65/99 77/83/99 29/66/99
f 31/13/100 78/84/100 30/65/100
f 29/66/101 77/83/101 34/67/101
f 77/83/102 33/68/102 34/67/102
f 30/65/103 78/84/103 77/83/103
f 78/84/104 79/85/104 77/83/104
f 77/83/105 79/85/105 33/68/105
f 79/85/106 32/17/106 33/68/106
f 31/13/107 17/12/107 78/84/107
f 17/12/108 16/86/108 78/84/108
f 78/84/109 16/86/109 79/85/109
f 16/86/110 15/87/110 79/85/110
f 79/85/111 15/87/111 32/17/111
f 15/87/112 2/4/112 32/17/112
f 27/72/113 80/88/113 26/73/113
f 28/10/114 81/89/114 27/72/114
f 27/72/115 81/89/115 80/88/115
f 28/10/116 19/6/116 81/89/116
f 19/6/117 18/90/117 81/89/117
f 20/91/118 25/15/118 4/14/118
f 21/92/119 82/93/119 20/91/119
f 22/9/120 83/94/120 21/92/120
f 20/91/121 82/93/121 25/15/121
f 82/93/122 24/80/122 25/15/122
f 21/92/123 83/94/123 82/93/123
f 83/94/124 84/95/124 82/93/124
f 82/93/125 84/95/125 24/80/125
f 84/95/126 23/81/126 24/80/126
f 22/9/127 11/8/127 83/94/127
f 11/8/128 10/96/128 83/94/128
f 83/94/129 10/96/129 84/95/129
f 10/96/130 9/97/130 84/95/130
f 84/95/131 9/97/131 23/81/131
f 9/97/132 3/82/132 23/81/132
f 19/6/133 85/98/133 18/90/133
f 19/6/134 14/5/134 85/98/134
f 14/5/135 13/99/135 85/98/135
f 85/98/136 13/99/136 86/100/136
f 13/99/137 12/101/137 86/100/137
f 9/102/138 17/12/138 3/11/138
f 10/103/139 87/104/139 9/102/139
f 11/3/140 88/105/140 10/103/140
f 9/102/141 87/104/141 17/12/141
f 87/104/142 16/86/142 17/12/142
f 10/103/143 88/105/143 87/104/143
f 88/105/144 89/106/144 87/104/144
f 87/104/145 89/106/145 16/86/145
f 89/106/146 15/87/146 16/86/146
f 11/3/147 12/2/147 88/105/147
f 12/2/148 13/107/148 88/105/148
f 88/105/149 13/107/149 89/106/149
f 13/107/150 14/108/150 89/106/150
f 89/106/151 14/108/151 15/87/151
f 14/108/152 2/4/152 15/87/152
